<svg width="34" height="34" viewBox="0 0 34 34" fill="#F7E2BE" xmlns="http://www.w3.org/2000/svg">
<g clip-path="url(#clip0_152:655)">
<path d="M7.76575 2.82238C7.64031 2.66101 7.48196 2.52818 7.30123 2.43271C7.1205 2.33724 6.92153 2.28132 6.71753 2.26865C6.51353 2.25599 6.30917 2.28688 6.11802 2.35927C5.92687 2.43166 5.75331 2.54389 5.60888 2.68851L3.41163 4.88788C2.38525 5.91638 2.007 7.37201 2.45538 8.64913C4.31632 13.9353 7.3435 18.7346 11.3124 22.6911C15.269 26.66 20.0683 29.6871 25.3544 31.5481C26.6315 31.9965 28.0871 31.6183 29.1156 30.5919L31.3129 28.3946C31.4575 28.2502 31.5697 28.0766 31.6421 27.8855C31.7145 27.6943 31.7454 27.49 31.7327 27.286C31.7201 27.082 31.6641 26.883 31.5687 26.7023C31.4732 26.5215 31.3404 26.3632 31.179 26.2378L26.2766 22.4255C26.1042 22.2918 25.9037 22.199 25.6902 22.1541C25.4767 22.1092 25.2558 22.1133 25.0441 22.1663L20.3904 23.3286C19.7692 23.4839 19.1184 23.4756 18.5013 23.3047C17.8843 23.1338 17.322 22.806 16.8693 22.3533L11.6503 17.1321C11.1971 16.6796 10.8689 16.1174 10.6976 15.5003C10.5263 14.8833 10.5178 14.2324 10.6728 13.611L11.8373 8.95726C11.8902 8.7456 11.8943 8.52468 11.8494 8.31118C11.8045 8.09767 11.7117 7.89716 11.578 7.72476L7.76575 2.82238ZM4.0045 1.08626C4.37637 0.714275 4.82311 0.42566 5.31507 0.239575C5.80703 0.0534909 6.33295 -0.0258042 6.85791 0.00695543C7.38287 0.039715 7.89485 0.18378 8.35986 0.429583C8.82487 0.675387 9.23227 1.0173 9.555 1.43263L13.3673 6.33288C14.0664 7.23176 14.3129 8.40263 14.0366 9.50763L12.8743 14.1614C12.8142 14.4024 12.8174 14.6549 12.8837 14.8943C12.95 15.1337 13.077 15.3519 13.2525 15.5278L18.4736 20.7489C18.6497 20.9247 18.8682 21.052 19.108 21.1183C19.3479 21.1846 19.6008 21.1876 19.8421 21.1271L24.4938 19.9648C25.0391 19.8284 25.6082 19.8178 26.1582 19.9338C26.7082 20.0498 27.2247 20.2892 27.6685 20.6341L32.5688 24.4464C34.3304 25.817 34.4919 28.4201 32.9151 29.9948L30.7179 32.192C29.1454 33.7645 26.7951 34.4551 24.6043 33.6838C18.9968 31.7107 13.9055 28.5005 9.708 24.2913C5.49899 20.0944 2.28879 15.0039 0.315501 9.39713C-0.453749 7.20838 0.236876 4.85601 1.80938 3.28351L4.00663 1.08626H4.0045Z" fill="#F7E2BE"/>
</g>
<defs>
<linearGradient id="paint0_linear_152:655" x1="17.0005" y1="-0.000244141" x2="17.0005" y2="34.0006" gradientUnits="userSpaceOnUse">
<stop stop-color="#FECFCF"/>
<stop offset="1" stop-color="#F7E2BE"/>
</linearGradient>
<clipPath id="clip0_152:655">
<rect width="34" height="34" fill="white"/>
</clipPath>
</defs>
</svg>
