<svg width="35" height="35" viewBox="0 0 35 35" fill="none" xmlns="http://www.w3.org/2000/svg">
<path d="M29.166 32.0832H5.83268C5.05913 32.0832 4.31727 31.7759 3.77029 31.2289C3.22331 30.682 2.91602 29.9401 2.91602 29.1665V13.1963C2.94026 12.7143 3.08194 12.2454 3.32874 11.8306C3.57554 11.4158 3.91997 11.0676 4.33206 10.8163L15.9987 3.81634C16.4519 3.54464 16.9703 3.40112 17.4986 3.40112C18.027 3.40112 18.5454 3.54464 18.9985 3.81634L30.6652 10.8163C31.5416 11.3457 32.0798 12.2936 32.0827 13.3174V29.1665C32.0827 29.9401 31.7754 30.682 31.2284 31.2289C30.6814 31.7759 29.9396 32.0832 29.166 32.0832ZM5.83268 14.3907V29.1665H29.166V14.3907L17.4994 22.168L5.83268 14.3907ZM17.4994 6.31738L7.75185 12.1653L17.4994 18.6636L27.2454 12.1653L17.4994 6.31738Z" fill="#F7E2BE"/>
<defs>
<linearGradient id="paint0_linear_152:650" x1="17.4994" y1="3.40112" x2="17.4994" y2="32.0832" gradientUnits="userSpaceOnUse">
<stop stop-color="#FDD4CF"/>
<stop offset="1" stop-color="#F7E2C0"/>
</linearGradient>
</defs>
</svg>
