<svg width="25" height="26" viewBox="0 0 25 26" fill="none" xmlns="http://www.w3.org/2000/svg">
<path d="M25 13.0386C25 11.9899 24.9149 11.2245 24.7307 10.4309H12.7551V15.1644H19.7845C19.6429 16.3407 18.8776 18.1123 17.1769 19.3027L17.153 19.4612L20.9395 22.3945L21.2018 22.4207C23.6111 20.1956 25 16.9218 25 13.0386Z" fill="#4285F4"/>
<path d="M12.7549 25.5102C16.1988 25.5102 19.0899 24.3764 21.2016 22.4207L17.1767 19.3027C16.0996 20.0538 14.654 20.5782 12.7549 20.5782C9.38194 20.5782 6.51915 18.3532 5.49865 15.2778L5.34906 15.2905L1.41184 18.3376L1.36035 18.4807C3.45783 22.6474 7.76623 25.5102 12.7549 25.5102Z" fill="#34A853"/>
<path d="M5.49881 15.2777C5.22954 14.484 5.0737 13.6336 5.0737 12.755C5.0737 11.8763 5.22954 11.026 5.48464 10.2323L5.47751 10.0633L1.49094 6.96729L1.36051 7.02933C0.496037 8.75837 0 10.7 0 12.755C0 14.81 0.496037 16.7515 1.36051 18.4806L5.49881 15.2777Z" fill="#FBBC05"/>
<path d="M12.7549 4.93193C15.15 4.93193 16.7656 5.96651 17.6869 6.83108L21.2866 3.31632C19.0758 1.26134 16.1988 0 12.7549 0C7.76623 0 3.45783 2.86279 1.36035 7.02942L5.48448 10.2324C6.51915 7.15702 9.38194 4.93193 12.7549 4.93193Z" fill="#EB4335"/>
</svg>
