<svg width="250" height="49" viewBox="0 0 250 49" fill="none" xmlns="http://www.w3.org/2000/svg">
<g clip-path="url(#clip0_1359:89)">
<path d="M70.5035 25.871C71.2518 26.6869 71.6263 27.6972 71.6263 28.9009C71.6263 29.8313 71.3818 30.6892 70.8932 31.4737C70.4042 32.2594 69.6594 32.8884 68.6588 33.3608C67.658 33.8331 66.4325 34.07 64.9813 34.07C63.8508 34.07 62.7392 33.9213 61.6472 33.6236C60.5551 33.3265 59.627 32.9036 58.8633 32.3548L60.307 29.5189C60.9181 29.9767 61.6244 30.3312 62.4264 30.5823C63.2281 30.834 64.0491 30.9601 64.8895 30.9601C65.8212 30.9601 66.5546 30.7812 67.0892 30.4227C67.6236 30.0643 67.8913 29.5573 67.8913 28.9013C67.8913 27.5908 66.8907 26.9347 64.8894 26.9347L63.1942 26.9346V24.4877L66.4936 20.76H59.6655V17.7871L70.8932 17.7872V20.1882L67.2728 24.3046C68.6777 24.5334 69.7552 25.0557 70.5035 25.8711V25.871Z" fill="white"/>
<path d="M74.3535 17.7872H81.6398C83.3815 17.7872 84.9201 18.1186 86.2572 18.7815C87.5934 19.4448 88.6323 20.3788 89.3733 21.5831C90.1139 22.7881 90.4848 24.1907 90.4848 25.7912C90.4848 27.3919 90.1142 28.7952 89.3733 29.9993C88.6321 31.2036 87.5934 32.1378 86.2572 32.8009C84.9201 33.4642 83.3812 33.7958 81.6398 33.7958L74.3535 33.7957V17.7871V17.7872ZM81.4572 30.7538C83.061 30.7538 84.3403 30.308 85.2954 29.4162C86.2497 28.5238 86.7274 27.3158 86.7274 25.7909C86.7274 24.2667 86.2497 23.0586 85.2954 22.1661C84.3403 21.2743 83.061 20.8279 81.4572 20.8279H78.0656V30.7537L81.4572 30.7538Z" fill="white"/>
<path d="M97.5125 33.0051C96.1912 32.2959 95.1521 31.3128 94.396 30.0547C93.64 28.7974 93.2617 27.3752 93.2617 25.7896C93.2617 24.2043 93.6401 22.7825 94.396 21.5246C95.1521 20.2672 96.1912 19.2831 97.5125 18.5745C98.8333 17.8653 100.319 17.5112 101.969 17.5112C103.359 17.5112 104.616 17.7552 105.738 18.2433C106.861 18.7313 107.804 19.4322 108.568 20.3472L106.185 22.5421C105.1 21.2925 103.756 20.6672 102.152 20.6672C101.159 20.6672 100.273 20.8846 99.4942 21.319C98.7151 21.7535 98.1079 22.3595 97.6722 23.137C97.237 23.9146 97.019 24.7994 97.019 25.7899C97.019 26.7811 97.2369 27.6655 97.6722 28.4429C98.1077 29.2205 98.715 29.8267 99.4942 30.2614C100.273 30.6961 101.159 30.9133 102.152 30.9133C103.756 30.9133 105.1 30.2806 106.185 29.0149L108.568 31.2104C107.804 32.1408 106.857 32.8497 105.727 33.3374C104.596 33.8254 103.336 34.0694 101.946 34.0694C100.311 34.0689 98.8332 33.7137 97.5126 33.0052L97.5125 33.0051Z" fill="white"/>
<path d="M113.99 32.9943C112.653 32.2779 111.607 31.2905 110.851 30.0322C110.095 28.7741 109.717 27.3607 109.717 25.7898C109.717 24.2197 110.095 22.8055 110.851 21.5474C111.607 20.2901 112.653 19.3032 113.99 18.586C115.327 17.8697 116.827 17.5112 118.492 17.5112C120.158 17.5112 121.655 17.8697 122.984 18.586C124.313 19.303 125.359 20.2898 126.123 21.5474C126.886 22.8055 127.268 24.2195 127.268 25.7898C127.268 27.3607 126.886 28.7741 126.123 30.0322C125.358 31.2902 124.313 32.2777 122.984 32.9943C121.655 33.7106 120.157 34.069 118.492 34.069C116.827 34.0694 115.327 33.7108 113.99 32.9943ZM121.059 30.2613C121.823 29.8271 122.422 29.2209 122.857 28.4428C123.293 27.6654 123.511 26.781 123.511 25.7898C123.511 24.7993 123.293 23.9149 122.857 23.1369C122.422 22.3594 121.822 21.7536 121.059 21.319C120.295 20.8846 119.439 20.6671 118.492 20.6671C117.545 20.6671 116.69 20.8846 115.926 21.319C115.162 21.7534 114.563 22.3594 114.128 23.1369C113.693 23.9145 113.475 24.7993 113.475 25.7898C113.475 26.781 113.692 27.6654 114.128 28.4428C114.563 29.2205 115.163 29.8267 115.926 30.2613C116.689 30.696 117.545 30.9132 118.492 30.9132C119.439 30.9132 120.295 30.6958 121.059 30.2613Z" fill="white"/>
<path d="M144.771 17.7871V33.7954H141.723L133.727 24.0762V33.7954H130.061V17.7871H133.131L141.105 27.5064V17.7871H144.771Z" fill="white"/>
<path d="M151.9 20.8056H146.768V17.7871H160.745V20.8056H155.612V33.795H151.9V20.8056H151.9Z" fill="white"/>
<path d="M175.155 30.8225V33.7954H162.736V17.7871H174.858V20.7601H166.425V24.236H173.873V27.1179H166.425V30.8228L175.155 30.8229V30.8225Z" fill="white"/>
<path d="M192.82 17.7871V33.7954H189.773L181.776 24.0762V33.7954H178.109V17.7871H181.18L189.154 27.5064V17.7871H192.82Z" fill="white"/>
<path d="M199.949 20.8056H194.816V17.7871H208.794V20.8056H203.661V33.795H199.948V20.8056H199.949Z" fill="white"/>
<path d="M228.737 30.3942H221.266L219.841 33.8353H216.025L223.198 17.7761H226.875L234.071 33.8353H230.163L228.737 30.3942H228.737ZM227.564 27.572L225.013 21.4235L222.461 27.572H227.564Z" fill="white"/>
<path d="M246.002 33.835L242.898 29.3614H242.715H239.474V33.835H235.75V17.7759H242.715C244.14 17.7759 245.377 18.0129 246.428 18.4864C247.477 18.9609 248.286 19.6343 248.853 20.5055C249.419 21.3778 249.703 22.4103 249.703 23.6026C249.703 24.7958 249.416 25.8242 248.841 26.689C248.266 27.5527 247.45 28.2148 246.393 28.6732L250.002 33.8353L246.002 33.8351V33.835ZM245.059 21.5262C244.477 21.0447 243.626 20.804 242.508 20.804H239.474V26.4016L242.508 26.4018C243.626 26.4018 244.477 26.1577 245.059 25.6679C245.642 25.1781 245.933 24.4899 245.933 23.6023C245.933 22.7007 245.642 22.0079 245.059 21.5262Z" fill="white"/>
<path d="M209.467 33.3303C209.129 32.9944 208.961 32.5731 208.961 32.0677C208.961 31.5509 209.129 31.1332 209.467 30.8146C209.804 30.4963 210.219 30.3367 210.713 30.3367C211.207 30.3367 211.623 30.4963 211.96 30.8146C212.297 31.1336 212.466 31.5511 212.466 32.0677C212.466 32.5727 212.297 32.994 211.96 33.3303C211.623 33.6671 211.207 33.8353 210.713 33.8353C210.219 33.8353 209.804 33.6671 209.467 33.3303Z" fill="#FFC000"/>
<path d="M23.681 8.91162V23.4597L23.6528 23.4765L19.8457 21.2344V11.1709L22.6954 9.49209L23.681 8.91162Z" fill="#F9A104"/>
<path d="M27.5191 11.1276V21.2005L27.501 21.2108L27.5191 21.2212V43.3121L23.6836 45.5713V33.8589L23.7034 33.8476L23.6836 33.8354V8.91162L27.5191 11.1276Z" fill="#F37D08"/>
<path d="M47.365 13.9543V18.3993L39.6935 22.9183L38.818 23.4338L35.0449 21.2113L38.818 18.9889L39.8395 18.387L47.365 13.9543Z" fill="#FFC000"/>
<path d="M23.681 23.4935V27.9045L23.6519 27.9215L19.8457 30.1243V25.6794L23.6528 23.4766L23.681 23.4935Z" fill="#FFC000"/>
<path d="M19.8483 25.6795V30.1245L16.1083 27.9217L7.67152 22.9519L3.83541 20.6034V45.5508L3.71097 45.624L0 43.4382V13.9878L3.76001 16.2028L3.83541 16.2471L7.53292 18.4253L7.67152 18.5069L19.8483 25.6795Z" fill="#F9A104"/>
<path d="M39.6957 13.8553L39.8408 13.9408L36.0687 16.1634L27.5191 11.1268L23.6836 8.91086V4.42383L23.7195 4.44462L27.4924 6.66779L27.5191 6.68288L39.6957 13.8553Z" fill="#F9A104"/>
<path d="M23.6859 4.42383V8.91086L22.7003 9.49133L19.8506 11.1701L18.9271 11.7148L15.1549 13.9361L11.3092 16.2019L7.53516 13.9795L11.3809 11.7137L15.1541 9.49133L18.9271 7.26886L19.8506 6.72529L19.9496 6.6669L23.6859 4.42383Z" fill="#F37D08"/>
<path d="M38.8203 18.9881L35.0472 21.2105L38.8203 23.433L39.6958 23.9494L43.532 26.2085L46.4778 27.9437L47.3107 28.4346L43.5377 30.657L43.532 30.6534L42.7047 30.1662L39.6958 28.3942L35.0472 25.6555L31.2741 23.433L27.5191 21.2209V21.2002L31.2732 18.9881L35.0472 16.7657L36.0687 16.1638L39.6958 14.0269L39.8409 13.9413L39.6958 13.8558L27.5191 6.68332V6.65226L27.4925 6.66823L23.7195 4.44507L15.1518 9.49178L11.3786 11.7142L7.67152 13.898L7.53292 13.98L7.67152 14.0607L11.307 16.2024L19.8483 21.2341L23.6554 23.4762L19.8483 25.679L0 13.9873V13.9723L23.6836 0.021682L23.7195 0L27.4925 2.22241L27.5191 2.23743L31.2665 4.44507L39.6958 9.41094L43.6149 11.719L47.3673 13.9292V13.9535L43.614 16.1648L43.532 16.2127L39.8418 18.3862L39.6958 18.4727L38.8203 18.9881Z" fill="#FFD876"/>
<path d="M47.3665 28.4685V43.2901L44.7826 44.8128L43.5501 45.5388L43.5312 45.5276V30.6609L43.537 30.658L47.3099 28.4355L47.3665 28.4685Z" fill="#FFC000"/>
<path d="M43.5344 30.6539V45.5272L39.6982 43.2682V32.9204L39.6945 32.9234L38.8615 32.4323L32.4856 28.676L31.204 27.9217L27.5215 25.7529V21.2214L31.2765 23.4335L35.0496 25.656L39.6982 28.3947L42.7071 30.1667L43.5344 30.6539Z" fill="#F9A104"/>
<path d="M7.674 22.951V43.2906L3.83789 45.5499V20.6025L7.674 22.951Z" fill="#F37D08"/>
<path d="M23.681 45.5701L23.6462 45.5907L20.9135 43.9814L19.8457 43.3523V30.1231L23.681 27.9033V45.5701Z" fill="#F9A104"/>
</g>
<defs>
<clipPath id="clip0_1359:89">
<rect width="250" height="48.8215" fill="white"/>
</clipPath>
</defs>
</svg>
