<svg width="39" height="38" viewBox="0 0 39 38" fill="none" xmlns="http://www.w3.org/2000/svg">
<path d="M19.5709 7.32224V19.2761L19.5477 19.29L16.4255 17.4477V9.17865L18.7626 7.79924L19.5709 7.32224Z" fill="#F9A104"/>
<path d="M22.7164 9.14308V17.4198L22.7017 17.4283L22.7164 17.4368V35.5886L19.571 37.4449V27.821L19.5872 27.8118L19.571 27.8017V7.32224L22.7164 9.14308Z" fill="#F37D08"/>
<path d="M38.9939 11.4654V15.1177L32.7025 18.8309L31.9846 19.2545L28.8903 17.4284L31.9846 15.6023L32.8223 15.1077L38.9939 11.4654Z" fill="#FFC000"/>
<path d="M19.5709 19.3039V22.9283L19.547 22.9423L16.4255 24.7523V21.1L19.5477 19.29L19.5709 19.3039Z" fill="#FFC000"/>
<path d="M16.4256 21.1V24.7523L13.3584 22.9423L6.43939 18.8587L3.29337 16.929V37.4278L3.19135 37.488L0.147949 35.692V11.4931L3.23151 13.3131L3.29337 13.3495L6.32573 15.1393L6.43939 15.2064L16.4256 21.1Z" fill="#F9A104"/>
<path d="M32.7025 11.3852L32.8215 11.4554L29.728 13.2816L22.7164 9.14321L19.571 7.32237V3.63544L19.6004 3.65254L22.6946 5.47924L22.7164 5.49166L32.7025 11.3852Z" fill="#F9A104"/>
<path d="M19.571 3.63544V7.32237L18.7627 7.79937L16.4257 9.17878L15.6683 9.62627L12.5748 11.4515L9.42096 13.3133L6.32587 11.4872L9.4797 9.62549L12.5741 7.79937L15.6683 5.97316L16.4257 5.52654L16.5069 5.47856L19.571 3.63544Z" fill="#F37D08"/>
<path d="M31.9853 15.6022L28.8909 17.4284L31.9853 19.2545L32.7032 19.6788L35.8493 21.5351L38.2651 22.9609L38.9482 23.3643L35.854 25.1904L35.8493 25.1874L35.1708 24.7871L32.7032 23.331L28.8909 21.0807L25.7966 19.2545L22.7171 17.4369V17.4199L25.7958 15.6022L28.8909 13.7761L29.7287 13.2815L32.7032 11.5257L32.8222 11.4553L32.7032 11.385L22.7171 5.49155V5.46604L22.6953 5.47914L19.6011 3.65243L12.5747 7.79926L9.4803 9.62538L6.44012 11.4197L6.32647 11.4871L6.44012 11.5534L9.42156 13.3132L16.4263 17.4477L19.5485 19.2901L16.4263 21.1L0.148682 11.4931V11.4808L19.5716 0.0177869L19.6011 0L22.6953 1.82612L22.7171 1.83843L25.7904 3.65243L32.7032 7.73281L35.9173 9.62929L38.9946 11.4453V11.4654L35.9165 13.2823L35.8493 13.3217L32.823 15.1076L32.7032 15.1787L31.9853 15.6022Z" fill="#FFD876"/>
<path d="M38.994 23.3913V35.57L36.8749 36.8212L35.8641 37.4177L35.8486 37.4085V25.1928L35.8533 25.1904L38.9475 23.3643L38.994 23.3913Z" fill="#FFC000"/>
<path d="M35.8486 25.1873V37.4085L32.7025 35.5523V27.0497L32.6994 27.0521L32.0163 26.6486L26.7875 23.5621L25.7364 22.9424L22.7164 21.1603V17.4368L25.7959 19.2544L28.8903 21.0807L32.7025 23.331L35.1701 24.787L35.8486 25.1873Z" fill="#F9A104"/>
<path d="M6.43941 18.8586V35.5713L3.2934 37.4278V16.9289L6.43941 18.8586Z" fill="#F37D08"/>
<path d="M19.5709 37.4448L19.5423 37.4618L17.3012 36.1394L16.4255 35.6225V24.7523L19.5709 22.9283V37.4448Z" fill="#F9A104"/>
</svg>
