<?xml version="1.0" encoding="UTF-8"?>
<!DOCTYPE svg PUBLIC "-//W3C//DTD SVG 1.1//EN" "http://www.w3.org/Graphics/SVG/1.1/DTD/svg11.dtd">
<!-- Creator: CorelDRAW 2020 (64-Bit) -->
<svg xmlns="http://www.w3.org/2000/svg" xml:space="preserve" width="21.8536in" height="4.27595in" version="1.1" style="shape-rendering:geometricPrecision; text-rendering:geometricPrecision; image-rendering:optimizeQuality; fill-rule:evenodd; clip-rule:evenodd"
viewBox="0 0 39357.55 7700.84"
 xmlns:xlink="http://www.w3.org/1999/xlink"
 xmlns:xodm="http://www.corel.com/coreldraw/odm/2003">
 <defs>
  <style type="text/css">
   <![CDATA[
    .fil0 {fill:none;fill-rule:nonzero}
    .fil1 {fill:#4B4B4B;fill-rule:nonzero}
    .fil4 {fill:#F37D08;fill-rule:nonzero}
    .fil3 {fill:#F9A104;fill-rule:nonzero}
    .fil2 {fill:#FFC000;fill-rule:nonzero}
    .fil5 {fill:#FFD876;fill-rule:nonzero}
   ]]>
  </style>
 </defs>
 <g id="Layer_x0020_1">
  <metadata id="CorelCorpID_0Corel-Layer"/>
  <line class="fil0" x1="3728.52" y1="7700.84" x2="3728.52" y2= "7679.83" />
  <path class="fil1" d="M11099.03 4080.66c117.81,128.7 176.77,288.06 176.77,477.92 0,146.76 -38.49,282.08 -115.42,405.81 -76.98,123.94 -194.24,223.16 -351.76,297.66 -157.56,74.51 -350.49,111.87 -578.95,111.87 -177.98,0 -352.98,-23.45 -524.89,-70.41 -171.92,-46.86 -318.03,-113.57 -438.27,-200.13l227.29 -447.32c96.2,72.21 207.39,128.12 333.65,167.73 126.22,39.7 255.47,59.6 387.77,59.6 146.67,0 262.13,-28.23 346.3,-84.77 84.13,-56.53 126.27,-136.5 126.27,-239.98 0,-206.71 -157.52,-310.2 -472.58,-310.2l-266.88 -0.01 0 -385.97 519.43 -587.99 -1074.96 0 0 -468.92 1767.58 0.01 0 378.72 -569.95 649.31c221.17,36.08 390.79,118.47 508.6,247.08z"/>
  <path class="fil1" d="M11705.02 2805.55l1147.09 0c274.19,0 516.41,52.27 726.91,156.84 210.36,104.63 373.91,251.95 490.58,441.91 116.58,190.07 174.97,411.31 174.97,663.76 0,252.49 -58.34,473.84 -174.97,663.76 -116.69,189.96 -280.22,337.31 -490.58,441.91 -210.5,104.63 -452.76,156.93 -726.91,156.93l-1147.09 -0.02 0 -2525.1zm1118.33 2045.28c252.49,0 453.89,-70.31 604.25,-210.98 150.25,-140.76 225.44,-331.31 225.44,-571.84 0,-240.42 -75.19,-430.97 -225.44,-571.75 -150.36,-140.67 -351.76,-211.09 -604.25,-211.09l-533.94 0 0 1565.64 533.94 0.02z"/>
  <path class="fil1" d="M15351.56 5206.14c-208.02,-111.87 -371.61,-266.94 -490.64,-465.38 -119.02,-198.33 -178.57,-422.65 -178.57,-672.75 0,-250.06 59.57,-474.33 178.57,-672.75 119.03,-198.33 282.62,-353.56 490.64,-465.32 207.93,-111.87 441.82,-167.72 701.57,-167.72 218.87,0 416.66,38.49 593.4,115.47 176.74,76.98 325.24,187.53 445.52,331.86l-375.15 346.21c-170.85,-197.11 -382.36,-295.74 -634.9,-295.74 -156.34,0 -295.8,34.3 -418.47,102.82 -122.66,68.53 -218.24,164.12 -286.84,286.75 -68.51,122.66 -102.83,262.22 -102.83,418.46 0,156.34 34.3,295.85 102.83,418.47 68.56,122.66 164.17,218.28 286.84,286.84 122.67,68.56 262.13,102.83 418.47,102.83 252.48,0 464.05,-99.8 634.9,-299.44l375.15 346.3c-120.33,146.76 -269.34,258.57 -447.32,335.5 -177.98,76.98 -376.39,115.47 -595.14,115.47 -257.42,-0.09 -490.12,-56.11 -698.02,-167.87z"/>
  <path class="fil1" d="M17945.08 5204.34c-210.5,-112.99 -375.15,-268.74 -494.18,-467.22 -119.06,-198.44 -178.57,-421.39 -178.57,-669.17 0,-247.67 59.51,-470.73 178.57,-669.17 119.03,-198.33 283.68,-353.99 494.18,-467.12 210.41,-112.99 446.69,-169.53 708.76,-169.53 262.18,0 497.88,56.54 707.08,169.53 209.28,113.09 373.9,268.74 494.17,467.12 120.24,198.44 180.38,421.48 180.38,669.17 0,247.78 -60.14,470.73 -180.38,669.17 -120.33,198.43 -284.89,354.19 -494.17,467.22 -209.18,112.99 -444.95,169.52 -707.08,169.52 -262.08,0.06 -498.31,-56.5 -708.76,-169.52zm1112.83 -431.08c120.24,-68.5 214.64,-164.11 283.14,-286.84 68.56,-122.63 102.83,-262.13 102.83,-418.47 0,-156.24 -34.26,-295.74 -102.83,-418.46 -68.5,-122.63 -162.96,-218.19 -283.14,-286.75 -120.3,-68.51 -254.94,-102.82 -404.07,-102.82 -149.13,0 -283.79,34.3 -404,102.82 -120.23,68.53 -214.58,164.12 -283.09,286.75 -68.51,122.66 -102.83,262.22 -102.83,418.46 0,156.34 34.3,295.85 102.83,418.47 68.51,122.66 162.91,218.28 283.09,286.84 120.18,68.56 254.88,102.83 404,102.83 149.13,0 283.83,-34.3 404.07,-102.83z"/>
  <polygon class="fil1" points="22791.55,2805.55 22791.55,5330.61 22311.74,5330.61 21052.89,3797.55 21052.89,5330.61 20475.64,5330.61 20475.64,2805.55 20959.05,2805.55 22214.41,4338.61 22214.41,2805.55 "/>
  <polygon class="fil1" points="23913.39,3281.67 23105.41,3281.67 23105.41,2805.55 25305.91,2805.55 25305.91,3281.67 24497.83,3281.67 24497.83,5330.55 23913.45,5330.55 23913.45,3281.67 "/>
  <polygon class="fil1" points="27574.78,4861.62 27574.78,5330.55 25619.67,5330.55 25619.67,2805.49 27527.92,2805.49 27527.92,3274.43 26200.45,3274.43 26200.45,3822.71 27372.85,3822.71 27372.85,4277.27 26200.45,4277.27 26200.45,4861.67 27574.78,4861.68 "/>
  <polygon class="fil1" points="30356.04,2805.55 30356.04,5330.61 29876.32,5330.61 28617.36,3797.55 28617.36,5330.61 28040.11,5330.61 28040.11,2805.55 28523.58,2805.55 29778.94,4338.61 29778.94,2805.55 "/>
  <polygon class="fil1" points="31477.86,3281.67 30669.88,3281.67 30669.88,2805.55 32870.4,2805.55 32870.4,3281.67 32062.32,3281.67 32062.32,5330.55 31477.82,5330.55 31477.82,3281.67 "/>
  <path class="fil1" d="M36010 4794.07l-1176.15 0 -224.31 542.78 -600.66 0 1129.12 -2533.09 578.97 0 1132.77 2533.09 -615.18 0 -224.55 -542.78zm-184.63 -445.16l-401.63 -969.83 -401.68 969.83 803.31 0z"/>
  <path class="fil1" d="M38727.78 5336.78l-488.57 -705.65 -28.93 0 -510.21 0 0 705.65 -586.23 0 0 -2533.08 1096.5 0c224.31,0 419.16,37.39 584.48,112.08 165.16,74.84 292.49,181.05 381.77,318.47 89.21,137.6 133.92,300.45 133.92,488.52 0,188.22 -45.29,350.43 -135.77,486.83 -90.47,136.24 -218.89,240.67 -385.35,312.99l568.15 814.24 -629.76 -0.04zm-148.42 -1941.53c-91.68,-75.95 -225.52,-113.91 -401.62,-113.91l-477.67 0 0 882.93 477.67 0.03c176.1,0 309.94,-38.5 401.62,-115.76 91.74,-77.25 137.6,-185.8 137.6,-325.81 -0.04,-142.21 -45.77,-251.49 -137.6,-327.48z"/>
  <path class="fil2" d="M32976.22 5257.15c-53.09,-52.98 -79.6,-119.44 -79.6,-199.15 0,-81.53 26.53,-147.41 79.6,-197.67 53.09,-50.2 118.5,-75.38 196.28,-75.38 77.72,0 143.19,25.18 196.28,75.38 53.09,50.32 79.65,116.18 79.65,197.67 0,79.65 -26.56,146.11 -79.65,199.15 -53.09,53.13 -118.56,79.65 -196.28,79.65 -77.82,0 -143.2,-26.53 -196.28,-79.65z"/>
  <line class="fil0" x1="3124.73" y1="4757.8" x2="3124.73" y2= "4751.59" />
  <polygon class="fil3" points="3728.52,1405.62 3728.52,3700.35 3724.08,3703.01 3124.73,3349.35 3124.73,1761.98 3573.36,1497.18 "/>
  <polygon class="fil4" points="4332.34,1755.15 4332.34,3344 4329.5,3345.63 4332.34,3347.27 4332.34,6831.76 3728.52,7188.11 3728.52,5340.66 3731.64,5338.89 3728.52,5336.96 3728.52,1405.62 "/>
  <line class="fil0" x1="4332.34" y1="4763.14" x2="4332.34" y2= "4746.24" />
  <polygon class="fil2" points="7457.05,2200.95 7457.05,2902.07 6249.32,3614.88 6111.5,3696.19 5517.5,3345.63 6111.5,2995.08 6272.31,2900.14 "/>
  <polygon class="fil2" points="3728.52,3705.68 3728.52,4401.45 3723.94,4404.13 3124.73,4751.59 3124.73,4050.47 3724.08,3703.01 "/>
  <polygon class="fil3" points="3124.73,4050.47 3124.73,4751.59 2535.94,4404.13 1207.73,3620.23 603.81,3249.79 603.81,7184.85 584.22,7196.4 -0,6851.63 -0,2206.28 591.94,2555.67 603.81,2562.65 1185.91,2906.22 1207.73,2919.1 "/>
  <polygon class="fil3" points="6249.32,2185.53 6272.16,2199.02 5678.31,2549.59 4332.34,1755.15 3728.52,1405.62 3728.52,697.86 3734.17,701.14 4328.15,1051.81 4332.34,1054.19 "/>
  <polygon class="fil4" points="3728.52,697.86 3728.52,1405.62 3573.36,1497.18 3124.73,1761.98 2979.34,1847.89 2385.49,2198.27 1780.06,2555.67 1185.91,2205.12 1791.34,1847.73 2385.36,1497.18 2979.34,1146.62 3124.73,1060.88 3140.32,1051.67 "/>
  <polygon class="fil5" points="6111.5,2995.08 5517.5,3345.63 6111.5,3696.19 6249.32,3777.64 6853.26,4133.99 7317.01,4407.68 7448.14,4485.12 6854.16,4835.67 6853.26,4835.09 6723.01,4758.25 6249.32,4478.74 5517.5,4046.76 4923.5,3696.19 4332.34,3347.27 4332.34,3344 4923.35,2995.08 5517.5,2644.53 5678.31,2549.59 6249.32,2212.53 6272.16,2199.02 6249.32,2185.53 4332.34,1054.19 4332.34,1049.29 4328.15,1051.81 3734.17,701.14 2385.36,1497.18 1791.34,1847.73 1207.73,2192.19 1185.91,2205.12 1207.73,2217.85 1780.06,2555.67 3124.73,3349.35 3724.08,3703.01 3124.73,4050.47 -0,2206.28 -0,2203.91 3728.52,3.42 3734.17,0 4328.15,350.55 4332.34,352.92 4922.3,701.14 6249.32,1484.43 6866.31,1848.49 7457.05,2197.11 7457.05,2200.95 6866.16,2549.74 6853.26,2557.3 6272.31,2900.14 6249.32,2913.78 "/>
  <line class="fil0" x1="6249.32" y1="5193.37" x2="6248.74" y2= "5193.07" />
  <polygon class="fil2" points="7457.05,4490.32 7457.05,6828.2 7050.26,7068.38 6856.22,7182.89 6853.26,7181.13 6853.26,4836.14 6854.16,4835.67 7448.14,4485.12 "/>
  <polygon class="fil3" points="6853.26,4835.09 6853.26,7181.13 6249.32,6824.8 6249.32,5192.6 6248.74,5193.07 6117.6,5115.61 5113.84,4523.11 4912.08,4404.13 4332.34,4062.04 4332.34,3347.27 4923.5,3696.19 5517.5,4046.76 6249.32,4478.74 6723.01,4758.25 "/>
  <polygon class="fil4" points="1207.73,3620.23 1207.73,6828.48 603.81,7184.85 603.81,3249.79 "/>
  <polygon class="fil3" points="3728.52,7188.11 3723.04,7191.36 3292.83,6937.51 3124.73,6838.29 3124.73,4751.59 3728.52,4401.45 "/>
 </g>
</svg>
